<svg width="58" height="42" viewBox="0 0 58 42" fill="none" xmlns="http://www.w3.org/2000/svg">
<path d="M36.395 30.555L26.1 23.1V12.6H31.9V21.3675L40.455 27.5625L36.395 30.555ZM26.1 8.4V4.2H31.9V8.4H26.1ZM46.4 23.1V18.9H52.2V23.1H46.4ZM26.1 37.8V33.6H31.9V37.8H26.1ZM5.8 23.1V18.9H11.6V23.1H5.8ZM29 42C24.9883 42 21.2183 41.4484 17.69 40.3452C14.1617 39.2434 11.0925 37.7475 8.4825 35.8575C5.8725 33.9675 3.80673 31.745 2.2852 29.19C0.761734 26.635 0 23.905 0 21C0 18.095 0.761734 15.365 2.2852 12.81C3.80673 10.255 5.8725 8.0325 8.4825 6.1425C11.0925 4.2525 14.1617 2.7559 17.69 1.6527C21.2183 0.5509 24.9883 0 29 0C33.0117 0 36.7817 0.5509 40.31 1.6527C43.8383 2.7559 46.9075 4.2525 49.5175 6.1425C52.1275 8.0325 54.1933 10.255 55.7148 12.81C57.2383 15.365 58 18.095 58 21C58 23.905 57.2383 26.635 55.7148 29.19C54.1933 31.745 52.1275 33.9675 49.5175 35.8575C46.9075 37.7475 43.8383 39.2434 40.31 40.3452C36.7817 41.4484 33.0117 42 29 42ZM29 37.8C35.4767 37.8 40.9625 36.1725 45.4575 32.9175C49.9525 29.6625 52.2 25.69 52.2 21C52.2 16.31 49.9525 12.3375 45.4575 9.0825C40.9625 5.8275 35.4767 4.2 29 4.2C22.5233 4.2 17.0375 5.8275 12.5425 9.0825C8.0475 12.3375 5.8 16.31 5.8 21C5.8 25.69 8.0475 29.6625 12.5425 32.9175C17.0375 36.1725 22.5233 37.8 29 37.8Z" fill="black"/>
</svg>
