<svg width="54" height="55" viewBox="0 0 54 55" fill="none" xmlns="http://www.w3.org/2000/svg">
<path d="M29.6682 17.925C26.7141 17.925 24.3 16 24.3 13.675C24.3 12.5545 24.8656 11.4798 25.8723 10.6875C26.8791 9.89513 28.2445 9.45 29.6682 9.45C32.6541 9.45 35.0682 11.35 35.0682 13.675C35.0682 16 32.6541 17.925 29.6682 17.925ZM20.0118 47.325L1.17529 44.375L2.25529 40.125L15.4376 42.25L19.7259 25.1L14.8976 26.6V33.75H9.52941V23.85L23.5059 19.175L25.6341 18.975C27.54 18.975 29.1282 19.825 30.1765 21.1L32.9082 24.475C35.0682 27.5 39.3565 29.55 44.4706 29.55V33.75C38.5624 33.75 33.1624 31.675 29.6682 28.5L28.08 34.85L33.7024 39.075V55H28.3341V42.25L22.68 38.025L20.0118 47.325ZM54 55H47.6471V5H6.35294V37.775L0 36.725V0H54V55ZM6.35294 55H0V46.95L6.35294 48V55Z" fill="black"/>
</svg>
