<svg width="213" height="210" viewBox="0 0 213 210" fill="none" xmlns="http://www.w3.org/2000/svg">
<path fill-rule="evenodd" clip-rule="evenodd" d="M106.5 199.5C159.436 199.5 202.35 157.19 202.35 105C202.35 52.8097 159.436 10.5 106.5 10.5C53.5642 10.5 10.65 52.8097 10.65 105C10.65 157.19 53.5642 199.5 106.5 199.5ZM106.5 210C165.32 210 213 162.991 213 105C213 47.0084 165.32 0 106.5 0C47.68 0 0 47.0084 0 105C0 162.991 47.68 210 106.5 210Z" fill="black"/>
<path d="M42.6 166.057C42.6 160.634 46.7109 156.051 52.185 155.452C93.2674 150.969 119.919 151.373 160.911 155.552C162.958 155.764 164.898 156.559 166.494 157.84C168.09 159.121 169.274 160.833 169.899 162.766C170.525 164.699 170.566 166.77 170.018 168.726C169.469 170.682 168.355 172.438 166.811 173.78C118.433 215.355 90.7859 214.782 46.008 173.822C43.8248 171.827 42.6 168.992 42.6 166.062V166.057Z" fill="black"/>
<path fill-rule="evenodd" clip-rule="evenodd" d="M160.362 160.77C119.695 156.623 93.4271 156.234 52.7654 160.671C51.427 160.824 50.193 161.46 49.2999 162.454C48.4068 163.449 47.9173 164.734 47.925 166.062C47.925 167.564 48.5587 168.987 49.629 169.974C71.8236 190.27 88.64 199.442 105.078 199.5C121.575 199.557 139.297 190.459 163.312 169.827C164.075 169.157 164.625 168.284 164.893 167.312C165.162 166.34 165.139 165.313 164.826 164.354C164.514 163.395 163.926 162.547 163.133 161.912C162.341 161.276 161.378 160.882 160.362 160.776V160.77ZM51.5993 150.234C93.113 145.703 120.153 146.112 161.465 150.328C164.544 150.645 167.463 151.84 169.864 153.768C172.265 155.695 174.044 158.271 174.983 161.179C175.923 164.088 175.981 167.204 175.152 170.145C174.323 173.086 172.642 175.725 170.315 177.738C145.953 198.675 125.665 210.078 105.046 210C84.3693 209.926 64.9757 198.329 42.3923 177.67C40.7754 176.185 39.4864 174.388 38.606 172.39C37.7255 170.391 37.2724 168.236 37.275 166.057C37.2672 162.143 38.7245 158.363 41.3676 155.443C44.0107 152.522 47.6539 150.665 51.5993 150.228V150.234Z" fill="black"/>
<path d="M149.1 83.9998C149.1 95.1389 144.612 105.822 136.623 113.698C128.634 121.575 117.798 126 106.5 126C95.2018 126 84.3663 121.575 76.3772 113.698C68.3882 105.822 63.9 95.1389 63.9 83.9998C63.9 72.8608 68.3882 62.1779 76.3772 54.3014C84.3663 46.4249 95.2018 41.9999 106.5 41.9999C117.798 41.9999 128.634 46.4249 136.623 54.3014C144.612 62.1779 149.1 72.8608 149.1 83.9998Z" fill="black"/>
<path fill-rule="evenodd" clip-rule="evenodd" d="M106.5 115.5C114.974 115.5 123.1 112.181 129.092 106.274C135.084 100.366 138.45 92.3541 138.45 83.9998C138.45 75.6455 135.084 67.6334 129.092 61.726C123.1 55.8186 114.974 52.4999 106.5 52.4999C98.0263 52.4999 89.8997 55.8186 83.9079 61.726C77.9161 67.6334 74.55 75.6455 74.55 83.9998C74.55 92.3541 77.9161 100.366 83.9079 106.274C89.8997 112.181 98.0263 115.5 106.5 115.5ZM106.5 126C117.798 126 128.634 121.575 136.623 113.698C144.612 105.822 149.1 95.1389 149.1 83.9998C149.1 72.8608 144.612 62.1779 136.623 54.3014C128.634 46.4249 117.798 41.9999 106.5 41.9999C95.2018 41.9999 84.3663 46.4249 76.3772 54.3014C68.3882 62.1779 63.9 72.8608 63.9 83.9998C63.9 95.1389 68.3882 105.822 76.3772 113.698C84.3663 121.575 95.2018 126 106.5 126Z" fill="black"/>
</svg>
