<svg width="53" height="43" viewBox="0 0 53 43" fill="none" xmlns="http://www.w3.org/2000/svg">
<path d="M46.375 8.95833C43.9237 8.33125 41.2296 8.0625 38.6458 8.0625C34.3396 8.0625 29.7021 8.77917 26.5 10.75C23.2979 8.77917 18.6604 8.0625 14.3542 8.0625C10.0479 8.0625 5.41041 8.77917 2.20833 10.75V36.9979C2.20833 37.4458 2.76041 37.8938 3.31249 37.8938C3.53333 37.8938 3.64374 37.8042 3.86458 37.8042C6.84583 36.6396 11.1521 35.8333 14.3542 35.8333C18.6604 35.8333 23.2979 36.55 26.5 38.5208C29.4812 36.9979 34.8917 35.8333 38.6458 35.8333C42.2896 35.8333 46.0437 36.3708 49.1354 37.7146C49.3562 37.8042 49.4667 37.8042 49.6875 37.8042C50.2396 37.8042 50.7917 37.3563 50.7917 36.9083V10.75C49.4667 9.94375 48.0312 9.40625 46.375 8.95833ZM46.375 33.1458C43.9458 32.5188 41.2958 32.25 38.6458 32.25C34.8917 32.25 29.4812 33.4146 26.5 34.9375V14.3333C29.4812 12.8104 34.8917 11.6458 38.6458 11.6458C41.2958 11.6458 43.9458 11.9146 46.375 12.5417V33.1458Z" fill="black"/>
<path d="M38.6458 18.8125C40.5892 18.8125 42.4662 18.9738 44.1667 19.2783V16.555C42.4221 16.2862 40.545 16.125 38.6458 16.125C34.8917 16.125 31.4908 16.6446 28.7083 17.6121V20.5862C31.2037 19.4396 34.6708 18.8125 38.6458 18.8125ZM28.7083 22.3779V25.3521C31.2037 24.2054 34.6708 23.5783 38.6458 23.5783C40.5892 23.5783 42.4662 23.7396 44.1667 24.0442V21.3208C42.4221 21.0521 40.545 20.8908 38.6458 20.8908C34.8917 20.8908 31.4908 21.4283 28.7083 22.3779ZM38.6458 25.6746C34.8917 25.6746 31.4908 26.1942 28.7083 27.1617V30.1358C31.2037 28.9892 34.6708 28.3621 38.6458 28.3621C40.5892 28.3621 42.4662 28.5233 44.1667 28.8279V26.1046C42.4221 25.8179 40.545 25.6746 38.6458 25.6746Z" fill="black"/>
</svg>
